<svg id="Layer_1" data-name="Layer 1" xmlns="http://www.w3.org/2000/svg" viewBox="0 0 177.16 46.74"><defs><style>.cls-1{fill:#252c38;}.cls-2{fill:#fff;}.cls-3{fill:#4f8bc9;}.cls-4{fill:#ebebea;}.cls-5{fill:#fdb83b;}</style></defs><path class="cls-1" d="M49.9,25.49a14.08,14.08,0,0,0-6-5.42,21.14,21.14,0,0,0-9.35-1.92H19.84L18.4,26.3H32.51q4.64,0,7.14,2.26A8.11,8.11,0,0,1,42.16,35a18.19,18.19,0,0,1-.27,2.79,13.48,13.48,0,0,1-4.47,8.43,13.51,13.51,0,0,1-9,3H23.91l.7-3.88H15.07l-2.15,12H27.6a25.54,25.54,0,0,0,11.24-2.46A22.31,22.31,0,0,0,47.27,48,23.58,23.58,0,0,0,51.6,37.74,27,27,0,0,0,52,33.66,15.61,15.61,0,0,0,49.9,25.49Z" transform="translate(-12.92 -10.63)"/><path class="cls-2" d="M28.32,53.18H17.8l.08-.52H28.32a20.06,20.06,0,0,0,8.77-1.92,17.5,17.5,0,0,0,6.56-5.39,18.44,18.44,0,0,0,3.37-8,20.15,20.15,0,0,0,.31-3.18,12.13,12.13,0,0,0-1.62-6.32,10.82,10.82,0,0,0-4.65-4.18,16.49,16.49,0,0,0-7.27-1.49H22.66l.1-.53h11a16.93,16.93,0,0,1,7.5,1.55,11.29,11.29,0,0,1,4.87,4.38,12.55,12.55,0,0,1,1.69,6.59,21.15,21.15,0,0,1-.31,3.26,19.11,19.11,0,0,1-3.46,8.19,18.2,18.2,0,0,1-6.76,5.55A20.64,20.64,0,0,1,28.32,53.18Z" transform="translate(-12.92 -10.63)"/><circle class="cls-3" cx="18.18" cy="26.21" r="7.38"/><path class="cls-2" d="M26.87,33.64c-.09.46.11,1,1.89,2l.18.1.11,1.33L28.91,37a.11.11,0,0,0-.15,0l-.08.12a.11.11,0,0,0,0,.15l.36.23.11,1.34-.08-.05a.13.13,0,0,0-.16,0l-.07.12a.12.12,0,0,0,0,.16l.31.19.09,1.08.76.48.56-4.23c1,.51,1.9,1,2.57,1.32l.07,1.39.5.32.36-1.34.43.09-.28-.34,1.06-.9-.51-.32-1.29.54c-.58-.45-1.42-1.09-2.29-1.74l3.56-2.34-.76-.48-1,.39-.32-.2a.11.11,0,0,0-.15,0l-.08.12a.13.13,0,0,0,0,.16l.08,0-1.26.48L31,33.64a.12.12,0,0,0-.16,0l-.07.11a.11.11,0,0,0,0,.16l.14.09-1.25.48-.17-.12c-1.67-1.17-2.23-1.13-2.6-.85A.11.11,0,0,0,26.87,33.64Z" transform="translate(-12.92 -10.63)"/><path class="cls-1" d="M64.62,57.37h-13l8.22-38.84h13Z" transform="translate(-12.92 -10.63)"/><path class="cls-1" d="M103.82,35.53a4.89,4.89,0,0,1,4.08,1.66,5,5,0,0,1,.7,4.42l-2,9.68a7.76,7.76,0,0,1-2.65,4.42,7.28,7.28,0,0,1-4.73,1.66H77.36a4.83,4.83,0,0,1-4-1.66,5.2,5.2,0,0,1-.73-4.42l1.07-5.24H86.59l-1.35,6.48h8.11l2.59-12.16H81a4.9,4.9,0,0,1-4.08-1.66,5,5,0,0,1-.7-4.42l2-9.68a7.7,7.7,0,0,1,2.64-4.42,7.23,7.23,0,0,1,4.73-1.66h21.84a4.93,4.93,0,0,1,4.08,1.64,4.94,4.94,0,0,1,.71,4.38l-1.07,5.24h-13l1.35-6.42H91.43L88.85,35.53Z" transform="translate(-12.92 -10.63)"/><path class="cls-1" d="M144.12,57.37h-13l2.59-12.16h-8.1l-2.59,12.16H110.12l8.22-38.84h12.95l-4.62,21.84h8.11l4.61-21.84h13Z" transform="translate(-12.92 -10.63)"/><path class="cls-1" d="M183,57.37H170l2.59-12.16h-8.1l-2.59,12.16H149l6.93-32.76a7.7,7.7,0,0,1,2.64-4.42,7.23,7.23,0,0,1,4.73-1.66H185.1a4.89,4.89,0,0,1,4.08,1.66,5,5,0,0,1,.7,4.42Zm-13.85-34-3.6,17h8.11l3.6-17Z" transform="translate(-12.92 -10.63)"/><path class="cls-4" d="M65.68,21.32l-6.84-4.74-1.12,5.87a4.44,4.44,0,0,1,3.59-.88,5.85,5.85,0,0,1,4,2.79A5.92,5.92,0,0,1,70,23.23a4.45,4.45,0,0,1,3,2.19l1.14-6Z" transform="translate(-12.92 -10.63)"/><polygon class="cls-3" points="52.75 10.77 40.76 2.46 55.02 0 67.36 7.54 52.75 10.77"/><path class="cls-5" d="M57.66,23.77,59,16.84l7.94-.62,0-.37-8.22.63L57.29,23.7c-.33.15-1,.7-1.35,2.65l1,.19,1,.19C58.31,24.78,57.91,24,57.66,23.77Z" transform="translate(-12.92 -10.63)"/></svg>